PathFileType	4	(X/Y/Z)	/tmp/tmp8ooq684z//results/MarkerData/rotated_Sprint_07200001.trc
DataRate	CameraRate	NumFrames	NumMarkers	Units	OrigDataRate	OrigDataStartFrame	OrigNumFrames
200	200	9	46	m	200	0	636
Frame#	Time	C7			L.ASIS			L.PSIS			L_5meta			L_Shoulder			L_ankle			L_calc			L_elbow_lat			L_elbow_med			L_forearm			L_humerus			L_knee			L_sh2			L_sh3			L_shank_antsup			L_thigh1			L_thigh2			L_thigh3			L_thigh4			L_toe			L_wrist_radius			L_wrist_ulna			R_Shoulder			R_elbow_lat			R_elbow_med			R_forearm			R_humerus			R_wrist_radius			R_wrist_ulna			Sternum			r.ASIS			r.PSIS			r_5meta			r_ankle			r_calc			r_knee			r_sh2			r_sh3			r_sh4			r_shank_antsup			r_thigh1			r_thigh2			r_thigh3			r_thigh4			r_thigh5			r_toe		
		X1	Y1	Z1	X2	Y2	Z2	X3	Y3	Z3	X4	Y4	Z4	X5	Y5	Z5	X6	Y6	Z6	X7	Y7	Z7	X8	Y8	Z8	X9	Y9	Z9	X10	Y10	Z10	X11	Y11	Z11	X12	Y12	Z12	X13	Y13	Z13	X14	Y14	Z14	X15	Y15	Z15	X16	Y16	Z16	X17	Y17	Z17	X18	Y18	Z18	X19	Y19	Z19	X20	Y20	Z20	X21	Y21	Z21	X22	Y22	Z22	X23	Y23	Z23	X24	Y24	Z24	X25	Y25	Z25	X26	Y26	Z26	X27	Y27	Z27	X28	Y28	Z28	X29	Y29	Z29	X30	Y30	Z30	X31	Y31	Z31	X32	Y32	Z32	X33	Y33	Z33	X34	Y34	Z34	X35	Y35	Z35	X36	Y36	Z36	X37	Y37	Z37	X38	Y38	Z38	X39	Y39	Z39	X40	Y40	Z40	X41	Y41	Z41	X42	Y42	Z42	X43	Y43	Z43	X44	Y44	Z44	X45	Y45	Z45	X46	Y46	Z46

1	0	0.793478	1.55854	-0.31196	0.904823	1.02338	-0.439675	0.710075	1.08462	-0.356687	1.41999	0.184581	-0.4283	0.806713	1.54085	-0.501104	1.25277	0.209592	-0.420039	1.20462	0.172652	-0.365624	0.527117	1.39433	-0.60762	0.501149	1.34822	-0.52519	0.650291	1.28326	-0.605448	0.637574	1.40678	-0.594555	1.11115	0.619196	-0.457463	1.0942	0.497693	-0.479722	1.13694	0.383139	-0.460436	1.17955	0.520947	-0.45946	1.05299	0.850616	-0.466929	1.12588	0.735363	-0.436936	0.960493	0.786004	-0.504312	1.03565	0.674238	-0.468248	1.44329	0.225597	-0.3655	0.748851	1.22387	-0.53545	0.715736	1.19944	-0.597455	0.895079	1.53537	-0.140238	0.811405	1.23946	0.0461739	0.77585	1.19861	-0.0308299	0.955603	1.26523	-0.0541235	0.898881	1.32482	-0.0314076	1.03835	1.27558	-0.126995	1.05213	1.23383	-0.102697	0.944471	1.46476	-0.357286	0.912112	1.00653	-0.17804	0.709242	1.08855	-0.248335	0.0689157	0.384192	-0.207652	0.179686	0.478663	-0.228288	0.17595	0.546563	-0.302009	0.609023	0.574745	-0.177631	0.38295	0.4902	-0.192876	0.481587	0.583441	-0.158791	0.372569	0.572335	-0.195368	0.499028	0.512618	-0.173237	0.800032	0.722072	-0.143202	0.738879	0.626471	-0.16458	0.685308	0.620317	-0.155102	0.700279	0.773118	-0.123769	0.645441	0.673771	-0.156729	0.0933922	0.328161	-0.257574
2	0.005	0.795415	1.56034	-0.312938	0.903175	1.02385	-0.439966	0.709319	1.08466	-0.356511	1.42403	0.185275	-0.426024	0.808079	1.54098	-0.501748	1.2559	0.207684	-0.41699	1.20972	0.170529	-0.361153	0.529719	1.3913	-0.607613	0.504172	1.34451	-0.525048	0.653544	1.28057	-0.605705	0.63988	1.40558	-0.594634	1.10421	0.610595	-0.459625	1.08852	0.49009	-0.47846	1.13509	0.378408	-0.455705	1.17339	0.516825	-0.460059	1.04923	0.840669	-0.467161	1.11764	0.722861	-0.43795	0.954974	0.780189	-0.507133	1.02583	0.665467	-0.469486	1.44671	0.228304	-0.364493	0.752126	1.22125	-0.535946	0.719395	1.19711	-0.59814	0.895333	1.53619	-0.141216	0.807476	1.24259	0.0457754	0.771333	1.20212	-0.0311531	0.953627	1.2628	-0.0538337	0.89673	1.32702	-0.0316227	1.03766	1.26958	-0.125854	1.04963	1.22763	-0.101042	0.944702	1.46515	-0.357251	0.913105	1.0078	-0.178025	0.709292	1.08898	-0.248555	0.0684168	0.414221	-0.207774	0.185673	0.500687	-0.227441	0.187311	0.569113	-0.301128	0.617627	0.571977	-0.176395	0.389531	0.500127	-0.191637	0.493094	0.588646	-0.159521	0.383238	0.582612	-0.194966	0.506612	0.516868	-0.171503	0.805375	0.72118	-0.141578	0.746008	0.624469	-0.162138	0.692326	0.617517	-0.1529	0.7044	0.770705	-0.123059	0.651722	0.670265	-0.15576	0.088791	0.356775	-0.258027
3	0.01	0.797228	1.56189	-0.314109	0.901558	1.02424	-0.440397	0.708293	1.08425	-0.355979	1.42358	0.18345	-0.424531	0.809485	1.54056	-0.502745	1.25502	0.204705	-0.413457	1.21081	0.168451	-0.355716	0.533058	1.38674	-0.608167	0.50769	1.33977	-0.525442	0.657245	1.27687	-0.606645	0.642623	1.40313	-0.5951	1.098	0.603504	-0.461438	1.08174	0.483279	-0.475963	1.13118	0.372877	-0.451843	1.16678	0.511931	-0.461198	1.04442	0.831207	-0.467838	1.10912	0.711263	-0.440246	0.948605	0.774791	-0.510136	1.01668	0.658463	-0.470144	1.44676	0.228607	-0.364638	0.756245	1.21791	-0.536516	0.723689	1.19392	-0.598873	0.895743	1.53671	-0.142353	0.802704	1.2454	0.0452612	0.766188	1.20534	-0.0316472	0.950905	1.25944	-0.0532529	0.894069	1.32902	-0.0317185	1.03634	1.2624	-0.124198	1.04625	1.22022	-0.098875	0.944971	1.46503	-0.357192	0.914062	1.00866	-0.178279	0.70936	1.08911	-0.248682	0.0711494	0.442871	-0.208093	0.19376	0.521747	-0.226813	0.200374	0.59057	-0.300112	0.627229	0.568399	-0.174947	0.397686	0.509111	-0.190405	0.506257	0.592056	-0.159738	0.395558	0.591627	-0.193665	0.515588	0.51917	-0.17161	0.810798	0.720561	-0.140829	0.753476	0.622362	-0.160772	0.699936	0.614346	-0.150942	0.708765	0.767918	-0.122228	0.658351	0.666394	-0.154771	0.0880614	0.384523	-0.259209
4	0.015	0.798871	1.56331	-0.315357	0.899961	1.02445	-0.440864	0.707049	1.08339	-0.355276	1.41911	0.178154	-0.42337	0.811161	1.5395	-0.503723	1.25056	0.20055	-0.409525	1.20817	0.16644	-0.349941	0.53706	1.38072	-0.609179	0.51158	1.33412	-0.526266	0.661478	1.27217	-0.608183	0.645781	1.39946	-0.595935	1.09219	0.59808	-0.462579	1.07371	0.477037	-0.472179	1.12536	0.367091	-0.448199	1.15932	0.50625	-0.462527	1.03839	0.822441	-0.468761	1.10142	0.701431	-0.443506	0.941706	0.769999	-0.51385	1.00786	0.653431	-0.46969	1.44392	0.22579	-0.366032	0.761164	1.21389	-0.537057	0.728605	1.18985	-0.599609	0.896114	1.53691	-0.143498	0.797168	1.24793	0.0445528	0.760267	1.20838	-0.0323997	0.947482	1.25518	-0.0523426	0.890926	1.33068	-0.0317347	1.03424	1.25407	-0.122162	1.04197	1.21159	-0.0961696	0.94531	1.46441	-0.357107	0.915078	1.00922	-0.178811	0.709387	1.08889	-0.248667	0.0771217	0.4698	-0.208566	0.203917	0.541754	-0.22632	0.214784	0.610832	-0.298809	0.637647	0.563931	-0.173416	0.407093	0.517177	-0.189374	0.52035	0.593402	-0.159333	0.409323	0.59962	-0.19167	0.525442	0.520233	-0.171608	0.816689	0.71969	-0.140586	0.761608	0.619968	-0.160106	0.708349	0.610844	-0.149468	0.713734	0.764743	-0.121367	0.66562	0.66199	-0.15371	0.0911389	0.410924	-0.260769
5	0.02	0.800199	1.56443	-0.316707	0.898206	1.02452	-0.441277	0.705519	1.0822	-0.354527	1.41138	0.16917	-0.422749	0.813515	1.53777	-0.5043	1.24333	0.195466	-0.405413	1.20223	0.164478	-0.344247	0.541183	1.37374	-0.610724	0.515729	1.3276	-0.527551	0.666317	1.26649	-0.609205	0.649286	1.39455	-0.597099	1.08606	0.594256	-0.463068	1.06487	0.470597	-0.46846	1.11786	0.361554	-0.444275	1.15068	0.499957	-0.463507	1.03098	0.815335	-0.47017	1.09466	0.69456	-0.446792	0.934399	0.765842	-0.518373	0.999812	0.650317	-0.469026	1.43839	0.219357	-0.368676	0.766397	1.20912	-0.537551	0.734253	1.18493	-0.600269	0.896341	1.53676	-0.144479	0.79091	1.25021	0.0436198	0.753517	1.21133	-0.0334854	0.943302	1.25006	-0.0511069	0.886957	1.33166	-0.0318105	1.03132	1.24448	-0.119696	1.03671	1.2019	-0.0929007	0.945747	1.46335	-0.357013	0.915936	1.00948	-0.179719	0.709413	1.08819	-0.248416	0.0860781	0.494568	-0.209151	0.216038	0.560587	-0.225894	0.230292	0.629776	-0.297082	0.64875	0.558524	-0.171976	0.41736	0.524312	-0.188732	0.534581	0.593308	-0.157925	0.424123	0.606327	-0.189194	0.535559	0.520338	-0.170819	0.823456	0.718497	-0.140638	0.770673	0.617279	-0.159537	0.717824	0.606995	-0.148535	0.719655	0.76113	-0.120803	0.673797	0.657075	-0.152639	0.0978176	0.4355	-0.261502
6	0.025	0.801483	1.565	-0.318178	0.895979	1.02471	-0.441758	0.703644	1.08064	-0.353567	1.40055	0.157696	-0.422514	0.815949	1.53566	-0.505045	1.23343	0.189653	-0.401837	1.19324	0.162176	-0.339145	0.545558	1.36588	-0.612741	0.520159	1.32027	-0.529307	0.671834	1.25989	-0.609604	0.653045	1.38843	-0.598558	1.07936	0.59167	-0.463044	1.0551	0.464218	-0.464654	1.10883	0.356347	-0.440128	1.14102	0.493373	-0.463931	1.02286	0.811321	-0.472542	1.08796	0.691394	-0.449189	0.926923	0.761942	-0.5214	0.993019	0.647974	-0.468458	1.42963	0.209858	-0.371802	0.771983	1.2036	-0.537921	0.740625	1.17924	-0.600729	0.896468	1.53624	-0.145262	0.783984	1.25231	0.0424643	0.746442	1.21398	-0.0347685	0.938324	1.24413	-0.0495051	0.882388	1.3321	-0.0319039	1.0275	1.23362	-0.116144	1.03037	1.19126	-0.0890727	0.946297	1.46193	-0.356898	0.916506	1.00956	-0.181106	0.709377	1.08699	-0.247855	0.0976649	0.517084	-0.209691	0.229869	0.578228	-0.225333	0.246948	0.647648	-0.295305	0.660534	0.553025	-0.170145	0.428462	0.530398	-0.188449	0.548805	0.592293	-0.155629	0.439552	0.611795	-0.186565	0.54605	0.519716	-0.16983	0.831122	0.717177	-0.141021	0.780766	0.614338	-0.159209	0.728382	0.602835	-0.147786	0.726433	0.757138	-0.120571	0.682985	0.651757	-0.151498	0.107501	0.45823	-0.262416
7	0.03	0.802766	1.56498	-0.319655	0.893809	1.0248	-0.442213	0.701311	1.07882	-0.352428	1.38665	0.14564	-0.422384	0.817944	1.53333	-0.506489	1.22076	0.183365	-0.398983	1.18132	0.158886	-0.334992	0.550331	1.35717	-0.615226	0.524945	1.3121	-0.531523	0.67791	1.25246	-0.61041	0.657187	1.38122	-0.600269	1.07186	0.589037	-0.462908	1.04474	0.458806	-0.461045	1.09836	0.351373	-0.436036	1.13091	0.486869	-0.463915	1.01459	0.810001	-0.475908	1.08125	0.690931	-0.450841	0.919468	0.757981	-0.522098	0.986772	0.645634	-0.46853	1.41801	0.198584	-0.373972	0.77799	1.19746	-0.537969	0.747539	1.17276	-0.600991	0.896463	1.53536	-0.145836	0.77642	1.25426	0.0411257	0.739536	1.21624	-0.0365237	0.932578	1.23757	-0.0475151	0.877164	1.332	-0.0319419	1.02272	1.22187	-0.112105	1.02291	1.17989	-0.0846768	0.94697	1.46021	-0.356733	0.916959	1.00961	-0.182499	0.709209	1.08527	-0.247139	0.111383	0.537318	-0.209663	0.245396	0.594507	-0.224604	0.264694	0.66419	-0.294025	0.672887	0.547616	-0.168397	0.440618	0.535435	-0.188235	0.56327	0.590707	-0.153261	0.455545	0.616156	-0.184131	0.557406	0.518595	-0.169369	0.839333	0.715926	-0.141744	0.791783	0.611465	-0.159034	0.739789	0.598634	-0.147103	0.733747	0.752919	-0.120298	0.693005	0.64627	-0.150243	0.119664	0.479075	-0.263419
8	0.035	0.803981	1.56441	-0.321065	0.891843	1.02487	-0.44262	0.69849	1.07685	-0.35112	1.37016	0.133596	-0.422277	0.819774	1.53058	-0.508244	1.20558	0.176613	-0.396787	1.16652	0.154084	-0.331981	0.55553	1.34764	-0.618142	0.530147	1.30323	-0.534266	0.684544	1.24425	-0.611499	0.661628	1.37307	-0.602241	1.06363	0.585546	-0.462854	1.0343	0.454349	-0.457707	1.08658	0.346538	-0.432264	1.12066	0.480705	-0.463678	1.00705	0.809759	-0.479864	1.07485	0.691437	-0.452203	0.912181	0.75426	-0.520828	0.980577	0.643248	-0.468836	1.40355	0.186094	-0.374727	0.784434	1.19061	-0.537629	0.754946	1.16556	-0.60101	0.896267	1.53409	-0.146201	0.768241	1.25612	0.0396266	0.732128	1.21851	-0.0386285	0.926097	1.23048	-0.0451969	0.871461	1.33132	-0.0318638	1.01683	1.20937	-0.107708	1.01434	1.16785	-0.0797887	0.947738	1.45827	-0.356507	0.917213	1.00965	-0.183736	0.70897	1.08296	-0.246012	0.127128	0.555485	-0.209293	0.262536	0.609187	-0.223875	0.283556	0.679061	-0.293216	0.68581	0.542329	-0.166953	0.453989	0.539292	-0.188314	0.578467	0.588674	-0.151128	0.472232	0.619272	-0.182177	0.569877	0.517166	-0.169274	0.847849	0.714858	-0.142602	0.803332	0.608862	-0.159757	0.751803	0.594539	-0.146571	0.74147	0.748578	-0.119501	0.703614	0.640682	-0.148985	0.133895	0.497999	-0.26403
9	0.04	0.805046	1.56324	-0.322378	0.88994	1.02475	-0.443104	0.69613	1.07402	-0.349796	1.35133	0.121435	-0.421599	0.821821	1.52752	-0.510064	1.18814	0.169297	-0.395215	1.14895	0.147973	-0.330241	0.561316	1.33728	-0.621343	0.535769	1.29375	-0.537393	0.691764	1.23537	-0.612575	0.666505	1.36407	-0.60439	1.05491	0.58132	-0.462949	1.02376	0.450759	-0.455062	1.07356	0.341777	-0.42904	1.1105	0.474849	-0.463349	1.00087	0.809431	-0.483857	1.06922	0.691766	-0.453452	0.905489	0.751424	-0.518646	0.974696	0.640889	-0.468928	1.38648	0.172656	-0.374194	0.79112	1.18323	-0.537106	0.762941	1.15769	-0.600777	0.895789	1.53252	-0.146301	0.759816	1.25772	0.0378343	0.724214	1.22081	-0.0410605	0.91863	1.22283	-0.0428123	0.865289	1.33011	-0.0317872	1.00983	1.19617	-0.102909	1.00462	1.15522	-0.0744644	0.948594	1.45614	-0.356246	0.917227	1.00963	-0.184783	0.708605	1.08003	-0.244712	0.144646	0.571743	-0.208612	0.28117	0.622063	-0.223393	0.30381	0.692162	-0.292	0.699553	0.537264	-0.165811	0.468771	0.542034	-0.188986	0.59458	0.586058	-0.149638	0.489694	0.621301	-0.180335	0.583546	0.515433	-0.169221	0.856541	0.7139	-0.143493	0.815406	0.606495	-0.161572	0.764506	0.590584	-0.145857	0.749484	0.744167	-0.118288	0.714738	0.635092	-0.147742	0.149858	0.51446	-0.26454
